<?xml version="1.0" encoding="utf-8"?>
<!-- Generator: Adobe Illustrator 25.4.1, SVG Export Plug-In . SVG Version: 6.00 Build 0)  -->
<svg version="1.1" id="Capa_1" xmlns="http://www.w3.org/2000/svg" xmlns:xlink="http://www.w3.org/1999/xlink" x="0px" y="0px"
	 viewBox="0 0 36 36" style="enable-background:new 0 0 36 36;" xml:space="preserve">
<style type="text/css">
	.st0{fill:#FFFFFF;}
	.st1{fill:#372865;}
</style>
<g>
	<circle class="st0" cx="18" cy="18" r="17.9"/>
	<g id="Capa_1_00000058549164406250324520000005562291727498181814_">
		<path class="st1" d="M27.9,7.7c-0.4,0-0.7-0.1-1.1-0.1c-8,0-12.6,6.1-14.3,11.1l4.4,4.4c5.1-1.8,11.1-6.2,11.1-14.2
			C27.9,8.5,27.9,8.1,27.9,7.7z M17.3,21l-2.7-2.7c1.2-2.7,4.4-8.4,11.4-8.8C25.8,14.9,22.2,18.8,17.3,21z M22.5,22.4
			c-0.5,0.4-1,0.7-1.5,1c-0.1,0.8-0.6,1.7-1.3,2.5c0-0.5-0.1-1-0.4-1.6c-0.4,0.2-0.9,0.4-1.3,0.5c0.6,1.6,0,2.8-0.8,3.9
			c1.2-0.1,2.5-0.7,3.5-1.7C21.6,25.8,22.4,24.2,22.5,22.4z M11.4,16.3c-0.5-0.2-1-0.4-1.6-0.4c0.7-0.7,1.6-1,2.5-1.3
			c0.3-0.5,0.6-1,1-1.5c-1.9,0.1-3.4,0.8-4.6,1.9c-1,1-1.6,2.2-1.7,3.5c1.1-0.8,2.3-1.5,3.9-0.8C11,17.2,11.2,16.8,11.4,16.3z
			 M18.6,16.9c-0.4-0.4-0.4-1,0-1.3c0.4-0.4,1-0.4,1.3,0c0.4,0.4,0.4,1,0,1.3S19,17.3,18.6,16.9z M23.3,12.4c-0.7-0.7-1.9-0.7-2.6,0
			c-0.7,0.7-0.7,1.9,0,2.6c0.7,0.7,1.9,0.7,2.6,0C24,14.2,24,13,23.3,12.4z M21.5,14.1c-0.2-0.2-0.2-0.7,0-0.9
			c0.2-0.2,0.7-0.2,0.9,0c0.2,0.2,0.2,0.7,0,0.9C22.2,14.4,21.7,14.4,21.5,14.1z M7.4,26l-0.8-0.8l4.9-4.9l0.8,0.8L7.4,26z M12,27.7
			l-0.8-0.8l3.4-3.4l0.8,0.8L12,27.7z M6.3,30.1l-0.8-0.8l6.1-6l0.8,0.8L6.3,30.1z M30,14.1c-0.2,0.7-0.7,1.3-1.4,1.4
			c0.7,0.2,1.3,0.7,1.4,1.4c0.2-0.7,0.7-1.3,1.4-1.4C30.8,15.3,30.2,14.7,30,14.1z M13.6,6.7c-0.3,0.9-1,1.6-1.9,1.9
			c0.9,0.3,1.6,1,1.9,1.9c0.3-0.9,1-1.6,1.9-1.9C14.5,8.4,13.8,7.6,13.6,6.7z M11.5,3.1c-0.2,0.7-0.7,1.3-1.5,1.5
			c0.7,0.2,1.3,0.8,1.5,1.5c0.2-0.7,0.8-1.3,1.5-1.5C12.3,4.4,11.7,3.9,11.5,3.1z M17.5,3.1c-0.4,1.2-1.3,2.1-2.4,2.4
			c1.2,0.4,2.1,1.3,2.4,2.4c0.4-1.2,1.3-2.1,2.4-2.4C18.8,5.2,17.9,4.3,17.5,3.1z M30,18.5c-0.4,1.2-1.3,2.1-2.4,2.4
			c1.2,0.4,2.1,1.3,2.4,2.5c0.4-1.2,1.3-2.1,2.4-2.5C31.2,20.5,30.3,19.6,30,18.5z"/>
	</g>
</g>
</svg>
